HIERARCHY
ROOT RootJoint
{
    OFFSET   0.000000   0.000000   0.000000
    CHANNELS 6 Xposition Yposition Zposition Xrotation Yrotation Zrotation
    JOINT pelvis_lowerback
    {
        OFFSET   0.000000   0.093605   0.000000
        CHANNELS 3 Xrotation Yrotation Zrotation
        JOINT lowerback_torso
        {
            OFFSET   0.000000   0.100000   0.000000
            CHANNELS 3 Xrotation Yrotation Zrotation
            JOINT torso_head
            {
                OFFSET   0.000000   0.282350   0.000000
                CHANNELS 3 Xrotation Yrotation Zrotation
                End Site
                {
                    OFFSET   0.000000   0.192650   0.000000
                }
            }
            JOINT rTorso_Clavicle
            {
                OFFSET  -0.001000   0.157500   0.000000
                CHANNELS 3 Xrotation Yrotation Zrotation
                JOINT rShoulder
                {
                    OFFSET  -0.117647   0.000000   0.000000
                    CHANNELS 3 Xrotation Yrotation Zrotation
                    JOINT rElbow
                    {
                        OFFSET  -0.245000   0.000000   0.000000
                        CHANNELS 3 Xrotation Yrotation Zrotation
                        JOINT rWrist
                        {
                            OFFSET  -0.240000   0.000000   0.000000
                            CHANNELS 3 Xrotation Yrotation Zrotation
                            End Site
                            {
                                OFFSET  -0.116353  -0.002500   0.000000
                            }
                        }
                    }
                }
            }
            JOINT lTorso_Clavicle
            {
                OFFSET   0.001000   0.157500   0.000000
                CHANNELS 3 Xrotation Yrotation Zrotation
                JOINT lShoulder
                {
                    OFFSET   0.117647   0.000000   0.000000
                    CHANNELS 3 Xrotation Yrotation Zrotation
                    JOINT lElbow
                    {
                        OFFSET   0.245000   0.000000   0.000000
                        CHANNELS 3 Xrotation Yrotation Zrotation
                        JOINT lWrist
                        {
                            OFFSET   0.240000   0.000000   0.000000
                            CHANNELS 3 Xrotation Yrotation Zrotation
                            End Site
                            {
                                OFFSET   0.116353  -0.002500   0.000000
                            }
                        }
                    }
                }
            }
        }
    }
    JOINT rHip
    {
        OFFSET  -0.100000  -0.051395   0.000000
        CHANNELS 3 Xrotation Yrotation Zrotation
        JOINT rKnee
        {
            OFFSET   0.000000  -0.410000   0.000000
            CHANNELS 3 Xrotation Yrotation Zrotation
            JOINT rAnkle
            {
                OFFSET   0.000000  -0.390000   0.000000
                CHANNELS 3 Xrotation Yrotation Zrotation
                JOINT rToeJoint
                {
                    OFFSET   0.000000  -0.050000   0.130000
                    CHANNELS 3 Xrotation Yrotation Zrotation
                    End Site
                    {
                        OFFSET  -0.010000   0.002000   0.060000
                    }
                }
            }
        }
    }
    JOINT lHip
    {
        OFFSET   0.100000  -0.051395   0.000000
        CHANNELS 3 Xrotation Yrotation Zrotation
        JOINT lKnee
        {
            OFFSET   0.000000  -0.410000   0.000000
            CHANNELS 3 Xrotation Yrotation Zrotation
            JOINT lAnkle
            {
                OFFSET   0.000000  -0.390000   0.000000
                CHANNELS 3 Xrotation Yrotation Zrotation
                JOINT lToeJoint
                {
                    OFFSET   0.000000  -0.050000   0.130000
                    CHANNELS 3 Xrotation Yrotation Zrotation
                    End Site
                    {
                        OFFSET   0.010000   0.002000   0.060000
                    }
                }
            }
        }
    }
}
MOTION
Frames: 10
Frame Time:   0.008333
 -2.448898   0.930653   5.408135  -0.475191 -13.590645   2.924876  11.726108   5.959121  -0.339263   4.870488   0.035672   1.615943  -2.925630  -0.365374   1.956607   0.825322   0.699733   7.017705  -2.471817   8.461119  43.659953   0.011294  38.137152  -0.036951  -0.311039   2.884362  -4.236880   8.109476   4.331677  -6.439465  18.979973  -5.550098 -49.664471  -0.011325 -19.720263   0.014451   2.911680  -3.457602  -1.163513   8.246458  -3.578479  -2.635458  16.197562  -0.001014   0.010301   0.392690  -4.350432   1.805076 -37.407488  -0.001305   0.018540 -30.435741   5.703255   6.477732  38.701121   0.005925   0.055269 -11.492251  13.971393   4.151212  -5.134100   0.003436   0.000760
 -2.449927   0.928924   5.422457  -0.565752 -14.222557   2.809785  11.692276   6.445711  -0.261587   5.048787   0.344257   1.578788  -2.997301  -0.558685   2.016786   0.649926   1.057161   6.831697  -2.981202   8.966447  43.475438   0.008540  39.597489  -0.035232  -0.318818   2.854588  -4.131322   8.387697   4.864594  -6.429659  19.766650  -4.722888 -49.708339  -0.009822 -19.040443   0.014979   2.889029  -3.394389  -1.315543   9.321543  -3.551854  -2.851350  15.927181  -0.001123   0.009684   0.777348  -3.944700   2.219865 -38.991219  -0.001100   0.019495 -30.757882   5.845229   6.672296  35.819465   0.001925   0.054214 -11.562488  14.036728   4.096708  -5.197883   0.002214   0.000588
 -2.451009   0.926913   5.436907  -0.642154 -14.819672   2.661817  11.628070   6.917892  -0.170920   5.205964   0.656986   1.555207  -3.062781  -0.744205   2.077880   0.458470   1.396040   6.606411  -3.480457   9.453874  43.276922   0.005186  40.984149  -0.033133  -0.318361   2.943614  -4.073652   8.688056   5.404672  -6.382867  20.539256  -3.913215 -49.740315  -0.008442 -18.388906   0.015336   2.865226  -3.286970  -1.435956  10.371263  -3.542656  -3.038405  15.691466  -0.001180   0.008978   1.173576  -3.560759   2.607965 -40.631551  -0.001529   0.020432 -31.067836   5.968582   6.887120  33.004830  -0.001897   0.052269 -11.632146  14.095117   4.045286  -5.249037   0.001343   0.000448
 -2.452120   0.924616   5.451473  -0.709396 -15.372456   2.502602  11.548932   7.377238  -0.082461   5.341113   0.969981   1.535105  -3.125986  -0.918144   2.135848   0.263600   1.718109   6.364511  -3.959100   9.915748  43.072575   0.002059  42.285294  -0.031091  -0.313047   3.081198  -4.073770   8.992125   5.932373  -6.310542  21.283199  -3.134735 -49.762427  -0.007279 -17.769226   0.015482   2.843174  -3.124893  -1.522673  11.399789  -3.546619  -3.218227  15.495115  -0.001199   0.008158   1.561448  -3.203972   2.968992 -42.303881  -0.002461   0.021059 -31.386840   6.079055   7.093255  30.352603  -0.005483   0.049318 -11.698360  14.149149   3.997209  -5.297648   0.000673   0.000334
 -2.453216   0.922093   5.466178  -0.773078 -15.853312   2.335521  11.460336   7.812449   0.011889   5.458390   1.271203   1.518147  -3.186893  -1.080807   2.189712   0.073244   2.019925   6.118029  -4.411984  10.348881  42.867853  -0.000450  43.501897  -0.029241  -0.305240   3.232685  -4.117762   9.288386   6.437651  -6.229185  21.989701  -2.395589 -49.781889  -0.006391 -17.184129   0.015418   2.822736  -2.929387  -1.582623  12.407890  -3.535833  -3.389685  15.327514  -0.001216   0.007241   1.910461  -2.870620   3.152639 -43.741683  -0.004514   0.018711 -31.712056   6.179591   7.270080  27.871048  -0.008946   0.045172 -11.760591  14.199130   3.952159  -5.345019   0.000153   0.000229
 -2.454345   0.919280   5.480976  -0.821127 -16.301057   2.172476  11.361602   8.236970   0.089561   5.557092   1.567438   1.498055  -3.245699  -1.232114   2.239941  -0.110783   2.306511   5.875770  -4.840036  10.758216  42.673086  -0.002350  44.640863  -0.027557  -0.295807   3.394104  -4.181038   9.575190   6.920541  -6.137797  22.659206  -1.695584 -49.799844  -0.005748 -16.633732   0.015086   2.803051  -2.719316  -1.625061  13.393606  -3.552443  -3.570140  15.212182  -0.001160   0.006279   2.294150  -2.560912   3.465154 -45.485717  -0.005660   0.018758 -32.045845   6.275496   7.429671  25.555730  -0.011744   0.040814 -11.819204  14.245586   3.909853  -5.393674  -0.000261   0.000141
 -2.455547   0.916505   5.495930  -0.854733 -16.688659   1.956134  11.247670   8.638959   0.203906   5.638482   1.851996   1.495057  -3.302984  -1.373241   2.287874  -0.283099   2.575236   5.656145  -5.239556  11.139550  42.488810  -0.003478  45.700814  -0.025952  -0.285833   3.544536  -4.260247   9.844300   7.375978  -6.069640  23.285408  -1.040781 -49.827273  -0.005426 -16.117153   0.014508   2.784489  -2.497849  -1.653539  14.389123  -3.577752  -3.693329  15.116639  -0.001097   0.005396   2.395818  -2.260219   3.800630 -45.388590  -0.004478   0.014794 -32.376451   6.356772   7.607737  23.385455  -0.014212   0.035687 -11.873885  14.288660   3.870301  -5.437414  -0.000544   0.000056
 -2.456804   0.914061   5.511495  -0.982347 -17.130980   1.721386  11.102721   9.025472   0.262591   5.811048   2.164538   1.533621  -3.369211  -1.581740   2.381505  -0.430301   2.859547   5.434387  -5.574606  11.501138  42.329887  -0.004002  46.781773  -0.024989  -0.263789   3.582578  -4.301796  10.080970   7.881859  -5.998172  23.864963  -0.208592 -49.830844  -0.004744 -15.689692   0.014398   2.781029  -2.430667  -1.768905  15.504790  -3.648732  -3.879750  14.946933  -0.001183   0.005124   2.829090  -1.876226   4.351412 -45.310893  -0.003632   0.011543 -32.491966   6.317429   7.746460  21.554798  -0.014964   0.033919 -12.046347  14.264308   3.968707  -5.558743  -0.001176   0.000186
 -2.457937   0.911791   5.527413  -1.092049 -17.612602   1.516644  10.922717   9.410647   0.300492   5.962719   2.484441   1.565763  -3.432667  -1.780105   2.468600  -0.563231   3.124067   5.220200  -5.885144  11.843387  42.188377  -0.004595  47.797870  -0.023368  -0.239890   3.643577  -4.309268  10.336815   8.395453  -5.902659  24.438502   0.600290 -49.830565  -0.004073 -15.278020   0.014157   2.773014  -2.347525  -1.865944  16.544815  -3.722573  -4.106784  14.803676  -0.001187   0.004821   3.416107  -1.562129   4.546520 -45.248731  -0.002778   0.009080 -32.531451   6.282623   7.837680  19.914506  -0.015533   0.032774 -12.206659  14.241297   4.061376  -5.683483  -0.001678   0.000368
 -2.459041   0.909555   5.543546  -1.168115 -18.087862   1.323373  10.715920   9.778967   0.333080   6.082940   2.795810   1.599342  -3.497401  -1.965930   2.548444  -0.686549   3.369729   5.013597  -6.175372  12.165412  42.058852  -0.005206  48.750206  -0.021436  -0.216019   3.721829  -4.310483  10.597676   8.897345  -5.785222  24.995320   1.375844 -49.824939  -0.003439 -14.884487   0.013740   2.765816  -2.226996  -1.942251  17.529605  -3.804715  -4.369352  14.734404  -0.001085   0.004209   4.112512  -1.234572   4.984850 -45.199003  -0.002188   0.007064 -32.540332   6.254180   7.903688  18.417299  -0.015979   0.031328 -12.355331  14.219433   4.147581  -5.801106  -0.002015   0.000506
